<svg width="56" height="53" viewBox="0 0 56 53" fill="none" xmlns="http://www.w3.org/2000/svg">
<rect x="4" y="0.5" width="48" height="48" rx="24" fill="#121212" fill-opacity="0.1"/>
<rect x="4" y="0.5" width="48" height="48" rx="24" stroke="#F9F5FF" stroke-width="8"/>
<path fill-rule="evenodd" clip-rule="evenodd" d="M27.9932 17.6358C25.9938 15.2984 22.6597 14.6696 20.1547 16.81C17.6496 18.9504 17.297 22.529 19.2642 25.0604C20.8998 27.1651 25.8498 31.6041 27.4721 33.0408C27.6536 33.2016 27.7444 33.2819 27.8502 33.3135C27.9426 33.3411 28.0437 33.3411 28.1361 33.3135C28.2419 33.2819 28.3327 33.2016 28.5142 33.0408C30.1365 31.6041 35.0865 27.1651 36.7221 25.0604C38.6893 22.529 38.3797 18.9279 35.8316 16.81C33.2835 14.6922 29.9925 15.2984 27.9932 17.6358Z" stroke="#121212" stroke-width="2" stroke-linecap="round" stroke-linejoin="round"/>
</svg>
