<svg width="56" height="57" viewBox="0 0 56 57" fill="none" xmlns="http://www.w3.org/2000/svg">
<rect x="4" y="4.5" width="48" height="48" rx="24" fill="#121212" fill-opacity="0.1"/>
<rect x="4" y="4.5" width="48" height="48" rx="24" stroke="#F9F5FF" stroke-width="8"/>
<path d="M30 18.7695V22.9001C30 23.4601 30 23.7401 30.109 23.9541C30.2049 24.1422 30.3578 24.2952 30.546 24.3911C30.7599 24.5001 31.0399 24.5001 31.6 24.5001H35.7305M30 33.5H24M32 29.5H24M36 26.4882V33.7C36 35.3802 36 36.2202 35.673 36.862C35.3854 37.4265 34.9265 37.8854 34.362 38.173C33.7202 38.5 32.8802 38.5 31.2 38.5H24.8C23.1198 38.5 22.2798 38.5 21.638 38.173C21.0735 37.8854 20.6146 37.4265 20.327 36.862C20 36.2202 20 35.3802 20 33.7V23.3C20 21.6198 20 20.7798 20.327 20.138C20.6146 19.5735 21.0735 19.1146 21.638 18.827C22.2798 18.5 23.1198 18.5 24.8 18.5H28.0118C28.7455 18.5 29.1124 18.5 29.4577 18.5829C29.7638 18.6564 30.0564 18.7776 30.3249 18.9421C30.6276 19.1276 30.887 19.387 31.4059 19.9059L34.5941 23.0941C35.113 23.613 35.3724 23.8724 35.5579 24.1751C35.7224 24.4436 35.8436 24.7362 35.9171 25.0423C36 25.3876 36 25.7545 36 26.4882Z" stroke="#121212" stroke-width="2" stroke-linecap="round" stroke-linejoin="round"/>
</svg>
