<svg width="37" height="37" viewBox="0 0 37 37" fill="none" xmlns="http://www.w3.org/2000/svg">
<rect width="35.8759" height="36.1353" transform="translate(0.916504 0.182617)" fill="white"/>
<path d="M22.5771 10.6943H15.1299C13.0734 10.6943 11.4062 12.3856 11.4062 14.472V22.0273C11.4062 24.1136 13.0734 25.805 15.1299 25.805H22.5771C24.6336 25.805 26.3007 24.1136 26.3007 22.0273V14.472C26.3007 12.3856 24.6336 10.6943 22.5771 10.6943Z" stroke="black" stroke-width="1.50021" stroke-linecap="round" stroke-linejoin="round"/>
<path d="M21.8338 17.7751C21.9257 18.4039 21.8198 19.0461 21.5312 19.6103C21.2426 20.1745 20.786 20.6321 20.2264 20.9179C19.6667 21.2037 19.0324 21.3031 18.4138 21.2022C17.7952 21.1012 17.2238 20.8049 16.7807 20.3554C16.3377 19.9059 16.0456 19.3261 15.946 18.6985C15.8465 18.0709 15.9445 17.4275 16.2262 16.8597C16.5079 16.2919 16.9589 15.8287 17.5151 15.5359C18.0713 15.2431 18.7043 15.1357 19.324 15.229C19.9563 15.3241 20.5416 15.623 20.9935 16.0815C21.4454 16.5399 21.74 17.1337 21.8338 17.7751Z" stroke="black" stroke-width="1.50021" stroke-linecap="round" stroke-linejoin="round"/>
<path d="M22.9497 14.0942H22.9571" stroke="black" stroke-width="1.50021" stroke-linecap="round" stroke-linejoin="round"/>
</svg>
