<svg width="22" height="27" viewBox="0 0 22 27" fill="none" xmlns="http://www.w3.org/2000/svg">
<path d="M18.1568 14.2632C18.1568 18.796 13.1282 23.5168 11.4397 24.9748C11.2824 25.0931 11.0909 25.157 10.8941 25.157C10.6972 25.157 10.5057 25.0931 10.3484 24.9748C8.65986 23.5168 3.63135 18.796 3.63135 14.2632C3.63135 12.337 4.39652 10.4897 5.75855 9.12769C7.12057 7.76566 8.96786 7.00049 10.8941 7.00049C12.8202 7.00049 14.6675 7.76566 16.0296 9.12769C17.3916 10.4897 18.1568 12.337 18.1568 14.2632Z" stroke="#9CA3AF" stroke-width="1.81568" stroke-linecap="round" stroke-linejoin="round"/>
<path d="M10.8934 16.9866C12.3976 16.9866 13.617 15.7672 13.617 14.2631C13.617 12.7589 12.3976 11.5396 10.8934 11.5396C9.38928 11.5396 8.16992 12.7589 8.16992 14.2631C8.16992 15.7672 9.38928 16.9866 10.8934 16.9866Z" stroke="#9CA3AF" stroke-width="1.81568" stroke-linecap="round" stroke-linejoin="round"/>
</svg>
