<svg width="37" height="37" viewBox="0 0 37 37" fill="none" xmlns="http://www.w3.org/2000/svg">
<rect width="35.8759" height="36.1353" transform="translate(0.793945 0.182617)" fill="white"/>
<path d="M15.679 24.2953C17.1004 25.035 18.7354 25.2353 20.2895 24.8602C21.8436 24.4851 23.2145 23.5593 24.1552 22.2494C25.096 20.9396 25.5446 19.332 25.4204 17.7162C25.2961 16.1005 24.6072 14.5829 23.4776 13.4369C22.348 12.291 20.8521 11.592 19.2595 11.4659C17.6669 11.3399 16.0823 11.7951 14.7912 12.7494C13.5001 13.7038 12.5874 15.0947 12.2177 16.6713C11.848 18.2479 12.0455 19.9067 12.7746 21.3487L11.2852 25.8063L15.679 24.2953Z" stroke="black" stroke-width="1.50021" stroke-linecap="round" stroke-linejoin="round"/>
</svg>
