<svg width="57" height="57" viewBox="0 0 57 57" fill="none" xmlns="http://www.w3.org/2000/svg">
<rect x="0.181641" y="0.125" width="56.6372" height="56.6372" rx="11.3274" fill="#121212"/>
<path d="M23.9293 30.8024C24.4532 32.8381 26.3011 34.3422 28.5003 34.3422C30.6995 34.3422 32.5475 32.8381 33.0714 30.8024M27.3413 17.5446L19.3385 23.769C18.8036 24.185 18.5361 24.3931 18.3434 24.6536C18.1727 24.8844 18.0456 25.1444 17.9682 25.4208C17.8809 25.7328 17.8809 26.0717 17.8809 26.7494V35.2862C17.8809 36.6079 17.8809 37.2687 18.1381 37.7735C18.3643 38.2175 18.7253 38.5785 19.1694 38.8048C19.6742 39.062 20.335 39.062 21.6567 39.062H35.344C36.6656 39.062 37.3265 39.062 37.8313 38.8048C38.2753 38.5785 38.6363 38.2175 38.8626 37.7735C39.1198 37.2687 39.1198 36.6079 39.1198 35.2862V26.7494C39.1198 26.0717 39.1198 25.7328 39.0324 25.4208C38.9551 25.1444 38.8279 24.8844 38.6572 24.6536C38.4645 24.3931 38.1971 24.185 37.6621 23.769L29.6594 17.5446C29.2448 17.2222 29.0376 17.061 28.8087 16.999C28.6068 16.9443 28.3939 16.9443 28.192 16.999C27.9631 17.061 27.7558 17.2222 27.3413 17.5446Z" stroke="white" stroke-width="2.35988" stroke-linecap="round" stroke-linejoin="round"/>
</svg>
