<svg width="22" height="23" viewBox="0 0 22 23" fill="none" xmlns="http://www.w3.org/2000/svg">
<path d="M19.9707 16.09V18.8135C19.9717 19.0663 19.92 19.3166 19.8187 19.5482C19.7174 19.7799 19.5688 19.9878 19.3825 20.1588C19.1962 20.3297 18.9763 20.4598 18.7367 20.5408C18.4972 20.6218 18.2434 20.6519 17.9916 20.6292C15.1981 20.3256 12.5146 19.371 10.157 17.8421C7.9635 16.4483 6.1038 14.5886 4.70996 12.3951C3.17569 10.0267 2.22089 7.33022 1.9229 4.5241C1.90021 4.27305 1.93005 4.02003 2.0105 3.78114C2.09096 3.54226 2.22028 3.32275 2.39022 3.13658C2.56016 2.95041 2.76701 2.80166 2.99759 2.69982C3.22817 2.59797 3.47742 2.54525 3.72949 2.54501H6.45301C6.89359 2.54067 7.32071 2.69669 7.65477 2.98398C7.98883 3.27127 8.20702 3.67023 8.26869 4.10649C8.38364 4.97808 8.59682 5.83386 8.90417 6.65752C9.02632 6.98245 9.05275 7.3356 8.98035 7.6751C8.90794 8.0146 8.73973 8.32623 8.49564 8.57306L7.34269 9.72601C8.63505 11.9988 10.5169 13.8807 12.7897 15.173L13.9427 14.0201C14.1895 13.776 14.5011 13.6078 14.8406 13.5354C15.1801 13.463 15.5333 13.4894 15.8582 13.6116C16.6819 13.9189 17.5377 14.1321 18.4092 14.247C18.8502 14.3093 19.253 14.5314 19.5409 14.8712C19.8288 15.211 19.9818 15.6447 19.9707 16.09Z" stroke="#9CA3AF" stroke-width="1.81568" stroke-linecap="round" stroke-linejoin="round"/>
</svg>
