<svg width="10" height="10" viewBox="0 0 10 10" fill="none" xmlns="http://www.w3.org/2000/svg">
<path d="M4.65708 2.87002V4.98327L6.41551 6.03806C6.45754 6.0633 6.48782 6.1042 6.49969 6.15177C6.51156 6.19934 6.50404 6.24967 6.4788 6.2917C6.45356 6.33373 6.41266 6.36401 6.36509 6.37588C6.31752 6.38775 6.26719 6.38024 6.22516 6.355L4.3771 5.24616C4.34975 5.22973 4.32712 5.2065 4.31141 5.17873C4.29571 5.15096 4.28746 5.11959 4.28747 5.08769V2.87002C4.28747 2.821 4.30694 2.774 4.34159 2.73934C4.37625 2.70468 4.42326 2.68521 4.47227 2.68521C4.52128 2.68521 4.56829 2.70468 4.60295 2.73934C4.63761 2.774 4.65708 2.821 4.65708 2.87002ZM8.90762 1.94599C8.8586 1.94599 8.8116 1.96546 8.77694 2.00012C8.74228 2.03477 8.72281 2.08178 8.72281 2.13079V3.46371C8.32224 2.98367 7.93738 2.54661 7.47768 2.08459C6.88679 1.49414 6.13502 1.09088 5.31629 0.92519C4.49755 0.759502 3.64814 0.838731 2.87417 1.15298C2.10019 1.46723 1.43597 2.00256 0.964479 2.69211C0.492984 3.38166 0.235119 4.19485 0.223097 5.0301C0.211074 5.86535 0.445427 6.68563 0.89688 7.38846C1.34833 8.09129 1.99687 8.64552 2.76148 8.98192C3.52608 9.31831 4.37286 9.42196 5.19603 9.2799C6.0192 9.13785 6.78226 8.75639 7.3899 8.18319C7.40755 8.16651 7.42175 8.14651 7.43168 8.12433C7.4416 8.10216 7.44706 8.07825 7.44775 8.05397C7.44844 8.02969 7.44433 8.00551 7.43568 7.98281C7.42702 7.96011 7.41397 7.93935 7.39729 7.92169C7.3806 7.90403 7.36061 7.88984 7.33843 7.87991C7.31626 7.86998 7.29235 7.86452 7.26807 7.86384C7.24379 7.86315 7.21961 7.86725 7.19691 7.87591C7.17421 7.88457 7.15344 7.89761 7.13579 7.9143C6.58106 8.43782 5.88436 8.78628 5.13274 8.91612C4.38111 9.04597 3.60789 8.95145 2.90967 8.64437C2.21146 8.33729 1.61921 7.83128 1.20693 7.18954C0.794644 6.54781 0.580606 5.79881 0.591556 5.03613C0.602505 4.27345 0.837957 3.5309 1.26849 2.90127C1.69903 2.27163 2.30556 1.78283 3.0123 1.49592C3.71904 1.20902 4.49466 1.13673 5.24225 1.2881C5.98984 1.43947 6.67625 1.80778 7.21572 2.34702C7.69252 2.82382 8.09401 3.28583 8.51629 3.79405H7.05956C7.01054 3.79405 6.96354 3.81352 6.92888 3.84818C6.89422 3.88283 6.87475 3.92984 6.87475 3.97885C6.87475 4.02787 6.89422 4.07487 6.92888 4.10953C6.96354 4.14419 7.01054 4.16366 7.05956 4.16366H8.90762C8.95663 4.16366 9.00364 4.14419 9.03829 4.10953C9.07295 4.07487 9.09242 4.02787 9.09242 3.97885V2.13079C9.09242 2.08178 9.07295 2.03477 9.03829 2.00012C9.00364 1.96546 8.95663 1.94599 8.90762 1.94599Z" fill="black"/>
</svg>
