<svg width="9" height="10" viewBox="0 0 9 10" fill="none" xmlns="http://www.w3.org/2000/svg">
<path d="M8.08191 0.206764H0.689672C0.542631 0.206764 0.401613 0.265176 0.297639 0.369149C0.193666 0.473123 0.135254 0.614142 0.135254 0.761182V3.34847C0.135254 5.71214 1.27782 7.14254 2.23604 7.92704C3.27095 8.77345 4.29431 9.05897 4.33728 9.07099C4.36904 9.07963 4.40254 9.07963 4.4343 9.07099C4.47727 9.05897 5.50064 8.77345 6.53555 7.92704C7.49377 7.14161 8.63633 5.71214 8.63633 3.34847V0.761182C8.63633 0.614142 8.57792 0.473123 8.47395 0.369149C8.36997 0.265176 8.22895 0.206764 8.08191 0.206764ZM8.26672 3.34847C8.26672 5.12445 7.60927 6.56548 6.31286 7.63181C5.74039 8.10137 5.08745 8.46313 4.38579 8.69953C3.68404 8.46334 3.03107 8.10155 2.45873 7.63181C1.16231 6.56548 0.504866 5.12445 0.504866 3.34847V0.761182C0.504866 0.712169 0.524337 0.665163 0.558994 0.630505C0.593652 0.595847 0.640658 0.576376 0.689672 0.576376H8.08191C8.13093 0.576376 8.17793 0.595847 8.21259 0.630505C8.24725 0.665163 8.26672 0.712169 8.26672 0.761182V3.34847ZM6.3646 2.8481C6.38179 2.86527 6.39542 2.88565 6.40472 2.90809C6.41402 2.93052 6.4188 2.95457 6.4188 2.97885C6.4188 3.00314 6.41402 3.02719 6.40472 3.04962C6.39542 3.07206 6.38179 3.09244 6.3646 3.10961L3.77732 5.69689C3.76016 5.71407 3.73977 5.7277 3.71734 5.737C3.6949 5.7463 3.67086 5.75109 3.64657 5.75109C3.62228 5.75109 3.59823 5.7463 3.5758 5.737C3.55336 5.7277 3.53298 5.71407 3.51582 5.69689L2.40698 4.58805C2.3723 4.55338 2.35282 4.50634 2.35282 4.4573C2.35282 4.40826 2.3723 4.36123 2.40698 4.32655C2.44166 4.29188 2.48869 4.27239 2.53773 4.27239C2.58677 4.27239 2.63381 4.29188 2.66848 4.32655L3.64657 5.30464L6.1031 2.8481C6.12027 2.83092 6.14065 2.81729 6.16308 2.80799C6.18552 2.79869 6.20957 2.7939 6.23385 2.7939C6.25814 2.7939 6.28219 2.79869 6.30462 2.80799C6.32706 2.81729 6.34744 2.83092 6.3646 2.8481Z" fill="black"/>
</svg>
