<svg width="10" height="10" viewBox="0 0 10 10" fill="none" xmlns="http://www.w3.org/2000/svg">
<path d="M9.20762 1.39156V3.60923C9.20762 3.65825 9.18815 3.70525 9.15349 3.73991C9.11883 3.77457 9.07183 3.79404 9.02281 3.79404H6.80514C6.75613 3.79404 6.70912 3.77457 6.67446 3.73991C6.63981 3.70525 6.62034 3.65825 6.62034 3.60923C6.62034 3.56022 6.63981 3.51321 6.67446 3.47855C6.70912 3.4439 6.75613 3.42443 6.80514 3.42443H8.57651L7.58549 2.43294C6.86324 1.71076 5.88541 1.30241 4.86407 1.29644C3.84272 1.29048 2.86019 1.68737 2.12955 2.40106C2.1122 2.41805 2.09167 2.43145 2.06914 2.44051C2.0466 2.44956 2.02251 2.45409 1.99822 2.45383C1.97394 2.45358 1.94995 2.44854 1.92761 2.43901C1.90528 2.42948 1.88504 2.41564 1.86805 2.39829C1.85106 2.38094 1.83766 2.36041 1.8286 2.33788C1.81955 2.31534 1.81502 2.29125 1.81528 2.26697C1.81553 2.24268 1.82057 2.21869 1.8301 2.19635C1.83963 2.17402 1.85347 2.15378 1.87082 2.13679C2.67108 1.35511 3.74723 0.920418 4.86588 0.926992C5.98454 0.933565 7.05551 1.38087 7.84652 2.1719L8.83801 3.16293V1.39156C8.83801 1.34255 8.85748 1.29554 8.89214 1.26088C8.9268 1.22622 8.9738 1.20675 9.02281 1.20675C9.07183 1.20675 9.11883 1.22622 9.15349 1.26088C9.18815 1.29554 9.20762 1.34255 9.20762 1.39156ZM7.78461 7.7743C7.06132 8.48468 6.08731 8.88156 5.07351 8.87898H5.0518C4.02936 8.87585 3.04996 8.46708 2.32868 7.74242L1.33766 6.75093H3.10902C3.15804 6.75093 3.20504 6.73146 3.2397 6.69681C3.27436 6.66215 3.29383 6.61514 3.29383 6.56613C3.29383 6.51712 3.27436 6.47011 3.2397 6.43545C3.20504 6.40079 3.15804 6.38132 3.10902 6.38132H0.891349C0.842335 6.38132 0.795329 6.40079 0.760671 6.43545C0.726014 6.47011 0.706543 6.51712 0.706543 6.56613V8.7838C0.706543 8.83281 0.726014 8.87982 0.760671 8.91448C0.795329 8.94914 0.842335 8.96861 0.891349 8.96861C0.940363 8.96861 0.987369 8.94914 1.02203 8.91448C1.05668 8.87982 1.07616 8.83281 1.07616 8.7838V7.01244L2.06764 8.00346C2.85729 8.79729 3.9298 9.24514 5.04948 9.24859H5.07305C6.18354 9.2512 7.25042 8.81652 8.04288 8.03857C8.06023 8.02158 8.07407 8.00134 8.0836 7.97901C8.09313 7.95667 8.09817 7.93268 8.09842 7.90839C8.09868 7.88411 8.09415 7.86002 8.0851 7.83748C8.07605 7.81495 8.06264 7.79442 8.04565 7.77707C8.02866 7.75972 8.00842 7.74588 7.98609 7.73635C7.96375 7.72682 7.93976 7.72178 7.91548 7.72153C7.89119 7.72127 7.8671 7.7258 7.84457 7.73485C7.82203 7.74391 7.8015 7.75731 7.78415 7.7743H7.78461Z" fill="black"/>
</svg>
