<svg width="10" height="9" viewBox="0 0 10 9" fill="none" xmlns="http://www.w3.org/2000/svg">
<path d="M9.09457 2.68521H6.82192C7.03368 2.59162 7.23034 2.46705 7.40545 2.3156C7.52688 2.20762 7.62469 2.07571 7.69275 1.92815C7.7608 1.78059 7.79763 1.62056 7.80093 1.4581C7.80617 1.27806 7.77457 1.09884 7.70807 0.93145C7.64156 0.764059 7.54157 0.612018 7.4142 0.484655C7.28684 0.357293 7.1348 0.257293 6.96741 0.190792C6.80002 0.12429 6.6208 0.0926886 6.44076 0.0979254C6.2783 0.101224 6.11827 0.138056 5.97071 0.206111C5.82315 0.274167 5.69124 0.371978 5.58326 0.49341C5.31021 0.801574 5.13834 1.20307 5.02884 1.58792C4.92027 1.20307 4.7484 0.802498 4.47442 0.49341C4.36644 0.371978 4.23454 0.274167 4.08698 0.206111C3.93942 0.138056 3.77939 0.101224 3.61692 0.0979254C3.43688 0.0926886 3.25767 0.12429 3.09028 0.190792C2.92288 0.257293 2.77084 0.357293 2.64348 0.484655C2.51612 0.612018 2.41612 0.764059 2.34962 0.93145C2.28312 1.09884 2.25151 1.27806 2.25675 1.4581C2.26005 1.62056 2.29688 1.78059 2.36494 1.92815C2.43299 2.07571 2.5308 2.20762 2.65224 2.3156C2.82735 2.46705 3.02401 2.59162 3.23576 2.68521H0.963109C0.816069 2.68521 0.67505 2.74362 0.571077 2.84759C0.467103 2.95157 0.408691 3.09259 0.408691 3.23963V4.71808C0.408691 4.86512 0.467103 5.00613 0.571077 5.11011C0.67505 5.21408 0.816069 5.27249 0.963109 5.27249H1.14792V8.4142C1.14792 8.56124 1.20633 8.70226 1.3103 8.80623C1.41427 8.9102 1.55529 8.96861 1.70233 8.96861H8.35535C8.50239 8.96861 8.64341 8.9102 8.74738 8.80623C8.85136 8.70226 8.90977 8.56124 8.90977 8.4142V5.27249H9.09457C9.24162 5.27249 9.38263 5.21408 9.48661 5.11011C9.59058 5.00613 9.64899 4.86512 9.64899 4.71808V3.23963C9.64899 3.09259 9.59058 2.95157 9.48661 2.84759C9.38263 2.74362 9.24162 2.68521 9.09457 2.68521ZM5.86047 0.738278C5.93509 0.654861 6.02613 0.587755 6.12789 0.541167C6.22966 0.494578 6.33995 0.469512 6.45185 0.467537H6.48003C6.60731 0.467672 6.73327 0.49331 6.85047 0.542935C6.96768 0.592561 7.07375 0.66517 7.16243 0.756473C7.2511 0.847776 7.32058 0.955922 7.36677 1.07452C7.41295 1.19313 7.4349 1.31978 7.43132 1.44701C7.42932 1.55891 7.40424 1.66919 7.35765 1.77095C7.31107 1.87271 7.24397 1.96375 7.16058 2.03839C6.602 2.53274 5.6327 2.64871 5.22012 2.67551C5.24876 2.26616 5.36426 1.29916 5.86047 0.738278ZM2.62636 1.44701C2.62278 1.31978 2.64473 1.19313 2.69092 1.07452C2.7371 0.955922 2.80658 0.847776 2.89526 0.756473C2.98393 0.66517 3.09001 0.592561 3.20721 0.542935C3.32441 0.49331 3.45037 0.467672 3.57765 0.467537H3.60584C3.71774 0.469512 3.82803 0.494578 3.92979 0.541167C4.03155 0.587755 4.1226 0.654861 4.19721 0.738278C4.69203 1.29685 4.80754 2.26616 4.83433 2.67874C4.4236 2.65194 3.45429 2.53598 2.89387 2.04162C2.81067 1.96633 2.74395 1.87464 2.69791 1.7723C2.65187 1.66997 2.62751 1.55922 2.62636 1.44701ZM0.778303 4.71808V3.23963C0.778303 3.19061 0.797774 3.14361 0.832432 3.10895C0.86709 3.07429 0.914096 3.05482 0.963109 3.05482H4.84404V4.90288H0.963109C0.914096 4.90288 0.86709 4.88341 0.832432 4.84875C0.797774 4.8141 0.778303 4.76709 0.778303 4.71808ZM1.51753 8.4142V5.27249H4.84404V8.599H1.70233C1.65332 8.599 1.60631 8.57953 1.57166 8.54487C1.537 8.51022 1.51753 8.46321 1.51753 8.4142ZM8.54016 8.4142C8.54016 8.46321 8.52069 8.51022 8.48603 8.54487C8.45137 8.57953 8.40436 8.599 8.35535 8.599H5.21365V5.27249H8.54016V8.4142ZM9.27938 4.71808C9.27938 4.76709 9.25991 4.8141 9.22525 4.84875C9.19059 4.88341 9.14359 4.90288 9.09457 4.90288H5.21365V3.05482H9.09457C9.14359 3.05482 9.19059 3.07429 9.22525 3.10895C9.25991 3.14361 9.27938 3.19061 9.27938 3.23963V4.71808Z" fill="black"/>
</svg>
